<svg width="271" height="55" viewBox="0 0 271 55" fill="none" xmlns="http://www.w3.org/2000/svg">
<path d="M0.896 36L4.832 13.6H8.832L13.824 28.512L23.968 13.6H27.968L24.032 36H20.64L23.552 19.456L14.368 32.8H11.744L7.2 19.488L4.288 36H0.896ZM27.1427 36L39.3348 13.6H43.0788L47.3028 36H43.7828L42.7908 30.528H33.6388L30.7588 36H27.1427ZM35.0468 27.904H42.3428L40.5188 17.504L35.0468 27.904ZM53.112 36L56.568 16.288H49.976L50.456 13.6H67.064L66.616 16.288H59.96L56.504 36H53.112ZM66.3023 36L70.2383 13.6H83.6463L83.1343 16.288H73.1503L71.9343 23.36H80.9583L80.5103 25.984H71.4543L70.1743 33.312H80.1583L79.6783 36H66.3023ZM92.1513 36.384C90.7646 36.384 89.5273 36.1493 88.4393 35.68C87.3726 35.1893 86.5299 34.4533 85.9113 33.472C85.2926 32.4907 84.9833 31.2427 84.9833 29.728C84.9833 29.0667 85.0473 28.352 85.1753 27.584L87.6393 13.6H91.0312L88.5353 27.584C88.4286 28.2027 88.3753 28.736 88.3753 29.184C88.3753 30.592 88.7593 31.6267 89.5273 32.288C90.3166 32.9493 91.3939 33.28 92.7593 33.28C94.3166 33.28 95.6393 32.8213 96.7273 31.904C97.8366 30.9867 98.5726 29.5467 98.9353 27.584L101.431 13.6H104.823L102.359 27.584C101.997 29.5893 101.314 31.2427 100.311 32.544C99.3086 33.8453 98.0926 34.816 96.6633 35.456C95.2553 36.0747 93.7513 36.384 92.1513 36.384ZM113.328 36.384C111.856 36.384 110.554 36.1493 109.424 35.68C108.314 35.2107 107.44 34.5387 106.799 33.664C106.181 32.7893 105.872 31.744 105.872 30.528C105.872 30.3147 105.882 30.112 105.904 29.92C105.925 29.7067 105.946 29.4827 105.968 29.248H109.584C109.52 29.5253 109.488 29.7813 109.488 30.016C109.488 31.0613 109.861 31.9147 110.608 32.576C111.376 33.216 112.41 33.536 113.712 33.536C115.184 33.536 116.314 33.1733 117.104 32.448C117.914 31.7013 118.32 30.7413 118.32 29.568C118.32 28.7147 118.032 28.0427 117.456 27.552C116.901 27.0613 116.176 26.6667 115.28 26.368C114.384 26.048 113.466 25.7067 112.528 25.344C111.12 24.8533 110.053 24.16 109.328 23.264C108.602 22.368 108.24 21.3333 108.24 20.16C108.24 18.7733 108.592 17.5573 109.296 16.512C110 15.4667 110.97 14.656 112.208 14.08C113.466 13.504 114.906 13.216 116.528 13.216C118.49 13.216 120.08 13.7067 121.296 14.688C122.512 15.648 123.12 16.9387 123.12 18.56C123.12 18.8587 123.088 19.1893 123.024 19.552H119.44C119.461 19.3173 119.472 19.1253 119.472 18.976C119.472 18.2293 119.184 17.568 118.608 16.992C118.032 16.3947 117.168 16.096 116.016 16.096C114.757 16.096 113.754 16.4267 113.008 17.088C112.261 17.7493 111.888 18.5813 111.888 19.584C111.888 20.3093 112.122 20.896 112.592 21.344C113.061 21.7707 113.69 22.144 114.48 22.464C115.29 22.7627 116.186 23.0933 117.168 23.456C118.49 23.9253 119.621 24.6187 120.56 25.536C121.498 26.432 121.968 27.6267 121.968 29.12C121.968 30.5707 121.594 31.8507 120.847 32.96C120.122 34.048 119.109 34.8907 117.808 35.488C116.528 36.0853 115.034 36.384 113.328 36.384Z" fill="#E4E4E4"/>
<path d="M123.688 0.642578H256.371L270.587 22.6664L256.371 45.5711H123.688L138.377 22.6664L123.688 0.642578Z" fill="#4C97F3"/>
<path d="M161.64 36.384C160.168 36.384 158.867 36.1493 157.736 35.68C156.627 35.2107 155.752 34.5387 155.112 33.664C154.493 32.7893 154.184 31.744 154.184 30.528C154.184 30.3147 154.195 30.112 154.216 29.92C154.237 29.7067 154.259 29.4827 154.28 29.248H157.896C157.832 29.5253 157.8 29.7813 157.8 30.016C157.8 31.0613 158.173 31.9147 158.92 32.576C159.688 33.216 160.723 33.536 162.024 33.536C163.496 33.536 164.627 33.1733 165.416 32.448C166.227 31.7013 166.632 30.7413 166.632 29.568C166.632 28.7147 166.344 28.0427 165.768 27.552C165.213 27.0613 164.488 26.6667 163.592 26.368C162.696 26.048 161.779 25.7067 160.84 25.344C159.432 24.8533 158.365 24.16 157.64 23.264C156.915 22.368 156.552 21.3333 156.552 20.16C156.552 18.7733 156.904 17.5573 157.608 16.512C158.312 15.4667 159.283 14.656 160.52 14.08C161.779 13.504 163.219 13.216 164.84 13.216C166.803 13.216 168.392 13.7067 169.608 14.688C170.824 15.648 171.432 16.9387 171.432 18.56C171.432 18.8587 171.4 19.1893 171.336 19.552H167.752C167.773 19.3173 167.784 19.1253 167.784 18.976C167.784 18.2293 167.496 17.568 166.92 16.992C166.344 16.3947 165.48 16.096 164.328 16.096C163.069 16.096 162.067 16.4267 161.32 17.088C160.573 17.7493 160.2 18.5813 160.2 19.584C160.2 20.3093 160.435 20.896 160.904 21.344C161.373 21.7707 162.003 22.144 162.792 22.464C163.603 22.7627 164.499 23.0933 165.48 23.456C166.803 23.9253 167.933 24.6187 168.872 25.536C169.811 26.432 170.28 27.6267 170.28 29.12C170.28 30.5707 169.907 31.8507 169.16 32.96C168.435 34.048 167.421 34.8907 166.12 35.488C164.84 36.0853 163.347 36.384 161.64 36.384ZM173.021 36L176.957 13.6H180.349L178.653 23.232H189.501L191.197 13.6H194.589L190.621 36H187.229L189.021 25.92H178.173L176.413 36H173.021ZM205.737 36.384C203.859 36.384 202.206 35.968 200.777 35.136C199.347 34.304 198.227 33.1733 197.417 31.744C196.627 30.2933 196.233 28.64 196.233 26.784C196.233 24.8853 196.574 23.1253 197.257 21.504C197.961 19.8613 198.921 18.4213 200.137 17.184C201.374 15.9253 202.803 14.9547 204.425 14.272C206.046 13.568 207.785 13.216 209.641 13.216C211.497 13.216 213.139 13.632 214.569 14.464C215.998 15.2747 217.118 16.4053 217.929 17.856C218.739 19.2853 219.145 20.928 219.145 22.784C219.145 24.6827 218.793 26.4533 218.089 28.096C217.385 29.7387 216.414 31.1787 215.177 32.416C213.961 33.6533 212.542 34.624 210.921 35.328C209.299 36.032 207.571 36.384 205.737 36.384ZM206.185 33.344C207.465 33.344 208.67 33.088 209.801 32.576C210.953 32.0427 211.966 31.3067 212.841 30.368C213.715 29.4293 214.398 28.3307 214.889 27.072C215.379 25.8133 215.625 24.4693 215.625 23.04C215.625 20.9493 215.038 19.296 213.865 18.08C212.713 16.864 211.155 16.256 209.193 16.256C207.891 16.256 206.665 16.5227 205.513 17.056C204.382 17.568 203.379 18.2933 202.505 19.232C201.651 20.1707 200.979 21.2693 200.489 22.528C199.998 23.7653 199.753 25.0987 199.753 26.528C199.753 27.9147 200.019 29.12 200.553 30.144C201.086 31.168 201.833 31.9573 202.793 32.512C203.753 33.0667 204.883 33.344 206.185 33.344ZM220.771 36L224.707 13.6H232.547C234.083 13.6 235.352 13.8667 236.355 14.4C237.358 14.9333 238.094 15.6373 238.563 16.512C239.054 17.3867 239.299 18.336 239.299 19.36C239.299 20.96 238.915 22.336 238.147 23.488C237.379 24.6187 236.302 25.4827 234.915 26.08C233.55 26.6773 231.971 26.976 230.179 26.976H225.763L224.163 36H220.771ZM226.243 24.192H230.531C232.195 24.192 233.486 23.808 234.403 23.04C235.32 22.272 235.779 21.1307 235.779 19.616C235.779 18.6773 235.47 17.9093 234.851 17.312C234.254 16.6933 233.272 16.384 231.907 16.384H227.619L226.243 24.192Z" fill="black"/>
<ellipse cx="232.218" cy="33.4281" rx="2.19253" ry="2.42857" fill="#15405C"/>
</svg>
