<svg width="565" height="360" viewBox="0 0 565 360" fill="none" xmlns="http://www.w3.org/2000/svg">
<path d="M496.115 359.575L0.00252971 356.458L79.4632 250.432L1.23413 146.533L497.347 149.65L560.824 244.573C563.009 247.841 563.078 252.084 561 255.42L496.115 359.575Z" fill="#4C97F3"/>
<path d="M161.101 302.092C155.213 302.092 150.008 301.196 145.485 299.404C140.962 297.526 137.421 294.838 134.861 291.34C132.301 287.756 131.021 283.489 131.021 278.54C131.021 277.686 131.064 276.876 131.149 276.108C131.234 275.254 131.32 274.401 131.405 273.548H148.813C148.728 274.486 148.685 275.34 148.685 276.108C148.685 279.777 149.965 282.764 152.525 285.068C155.17 287.286 158.712 288.396 163.149 288.396C168.098 288.396 171.981 287.158 174.797 284.684C177.613 282.124 179.021 278.796 179.021 274.7C179.021 271.628 177.954 269.196 175.821 267.404C173.688 265.612 170.957 264.118 167.629 262.924C164.386 261.729 160.973 260.492 157.389 259.212C151.757 257.164 147.448 254.348 144.461 250.764C141.474 247.18 139.981 242.956 139.981 238.092C139.981 232.374 141.432 227.382 144.333 223.116C147.32 218.764 151.373 215.393 156.493 213.004C161.698 210.614 167.672 209.42 174.413 209.42C182.52 209.42 189.048 211.382 193.997 215.308C198.946 219.233 201.421 224.566 201.421 231.308C201.421 231.905 201.378 232.545 201.293 233.228C201.293 233.91 201.25 234.593 201.165 235.276H183.629C183.714 234.508 183.757 233.782 183.757 233.1C183.757 230.454 182.733 228.15 180.685 226.188C178.637 224.225 175.65 223.244 171.725 223.244C167.373 223.244 163.917 224.396 161.357 226.7C158.882 228.918 157.645 231.734 157.645 235.148C157.645 237.793 158.498 239.926 160.205 241.548C161.912 243.084 164.216 244.449 167.117 245.644C170.018 246.753 173.218 247.948 176.717 249.228C180.386 250.508 183.714 252.214 186.701 254.348C189.773 256.396 192.205 258.913 193.997 261.9C195.874 264.886 196.813 268.428 196.813 272.524C196.813 278.497 195.277 283.702 192.205 288.14C189.133 292.577 184.909 296.033 179.533 298.508C174.157 300.897 168.013 302.092 161.101 302.092ZM206.863 300.556L222.735 210.956H239.119L232.463 248.332H272.783L279.311 210.956H295.695L279.823 300.556H263.439L270.479 261.26H230.287L223.247 300.556H206.863ZM340.374 302.092C332.779 302.092 326.081 300.428 320.278 297.1C314.475 293.772 309.91 289.206 306.582 283.404C303.339 277.516 301.718 270.86 301.718 263.436C301.718 255.926 303.083 248.929 305.814 242.444C308.63 235.873 312.47 230.113 317.334 225.164C322.283 220.214 328.001 216.374 334.486 213.644C341.057 210.828 348.054 209.42 355.478 209.42C363.073 209.42 369.771 211.084 375.574 214.412C381.377 217.74 385.899 222.305 389.142 228.108C392.47 233.91 394.134 240.524 394.134 247.948C394.134 255.457 392.726 262.497 389.91 269.068C387.179 275.638 383.339 281.398 378.39 286.348C373.441 291.297 367.723 295.18 361.238 297.996C354.753 300.726 347.798 302.092 340.374 302.092ZM342.422 287.372C347.201 287.372 351.681 286.433 355.862 284.556C360.043 282.593 363.713 279.862 366.87 276.364C370.113 272.865 372.63 268.812 374.422 264.204C376.299 259.596 377.238 254.646 377.238 249.356C377.238 241.676 375.147 235.574 370.966 231.052C366.785 226.444 360.982 224.14 353.558 224.14C348.694 224.14 344.171 225.121 339.99 227.084C335.809 229.046 332.097 231.734 328.854 235.148C325.697 238.561 323.179 242.572 321.302 247.18C319.51 251.788 318.614 256.737 318.614 262.028C318.614 269.708 320.747 275.852 325.014 280.46C329.281 285.068 335.083 287.372 342.422 287.372ZM400.241 300.556L415.985 210.956H449.137C455.366 210.956 460.529 212.065 464.625 214.284C468.721 216.417 471.75 219.276 473.713 222.86C475.676 226.444 476.657 230.369 476.657 234.636C476.657 241.121 475.078 246.71 471.921 251.404C468.764 256.012 464.369 259.596 458.737 262.156C453.19 264.63 446.79 265.868 439.537 265.868H422.769L416.625 300.556H400.241ZM425.073 252.556H440.817C446.79 252.556 451.441 251.148 454.769 248.332C458.097 245.43 459.761 241.292 459.761 235.916C459.761 232.417 458.652 229.601 456.433 227.468C454.214 225.334 450.673 224.268 445.809 224.268H430.065L425.073 252.556Z" fill="black"/>
<ellipse cx="442.894" cy="297.226" rx="8.03436" ry="8.31403" fill="#15405C"/>
<path d="M3.584 127L19.328 37.4H35.328L55.296 97.048L95.872 37.4H111.872L96.128 127H82.56L94.208 60.824L57.472 114.2H46.976L28.8 60.952L17.152 127H3.584ZM108.571 127L157.339 37.4H172.315L189.211 127H175.131L171.163 105.112H134.555L123.035 127H108.571ZM140.187 94.616H169.371L162.075 53.016L140.187 94.616ZM212.448 127L226.272 48.152H199.904L201.824 37.4H268.256L266.464 48.152H239.84L226.016 127H212.448ZM265.209 127L280.953 37.4H334.585L332.537 48.152H292.601L287.737 76.44H323.833L322.041 86.936H285.817L280.697 116.248H320.633L318.713 127H265.209ZM368.605 128.536C363.058 128.536 358.109 127.597 353.757 125.72C349.49 123.757 346.12 120.813 343.645 116.888C341.17 112.963 339.933 107.971 339.933 101.912C339.933 99.2667 340.189 96.408 340.701 93.336L350.557 37.4H364.125L354.141 93.336C353.714 95.8107 353.501 97.944 353.501 99.736C353.501 105.368 355.037 109.507 358.109 112.152C361.266 114.797 365.576 116.12 371.037 116.12C377.266 116.12 382.557 114.285 386.909 110.616C391.346 106.947 394.29 101.187 395.741 93.336L405.725 37.4H419.293L409.437 93.336C407.986 101.357 405.256 107.971 401.245 113.176C397.234 118.381 392.37 122.264 386.653 124.824C381.021 127.299 375.005 128.536 368.605 128.536ZM453.31 128.536C447.422 128.536 442.217 127.597 437.694 125.72C433.257 123.843 429.758 121.155 427.198 117.656C424.723 114.157 423.486 109.976 423.486 105.112C423.486 104.259 423.529 103.448 423.614 102.68C423.699 101.827 423.785 100.931 423.87 99.992H438.334C438.078 101.101 437.95 102.125 437.95 103.064C437.95 107.245 439.443 110.659 442.43 113.304C445.502 115.864 449.641 117.144 454.846 117.144C460.734 117.144 465.257 115.693 468.414 112.792C471.657 109.805 473.278 105.965 473.278 101.272C473.278 97.8587 472.126 95.1707 469.822 93.208C467.603 91.2453 464.702 89.6667 461.118 88.472C457.534 87.192 453.865 85.8267 450.11 84.376C444.478 82.4133 440.211 79.64 437.31 76.056C434.409 72.472 432.958 68.3333 432.958 63.64C432.958 58.0933 434.366 53.2293 437.182 49.048C439.998 44.8667 443.881 41.624 448.83 39.32C453.865 37.016 459.625 35.864 466.11 35.864C473.961 35.864 480.318 37.8267 485.182 41.752C490.046 45.592 492.478 50.7547 492.478 57.24C492.478 58.4347 492.35 59.7573 492.094 61.208H477.758C477.843 60.2693 477.886 59.5013 477.886 58.904C477.886 55.9173 476.734 53.272 474.43 50.968C472.126 48.5787 468.67 47.384 464.062 47.384C459.027 47.384 455.017 48.7067 452.03 51.352C449.043 53.9973 447.55 57.3253 447.55 61.336C447.55 64.2373 448.489 66.584 450.366 68.376C452.243 70.0827 454.761 71.576 457.918 72.856C461.161 74.0507 464.745 75.3733 468.67 76.824C473.961 78.7013 478.483 81.4747 482.238 85.144C485.993 88.728 487.87 93.5067 487.87 99.48C487.87 105.283 486.377 110.403 483.39 114.84C480.489 119.192 476.435 122.563 471.23 124.952C466.11 127.341 460.137 128.536 453.31 128.536Z" fill="#E4E4E4"/>
</svg>
